<svg version="1.1" id="Layer_1" xmlns="http://www.w3.org/2000/svg" xmlns:xlink="http://www.w3.org/1999/xlink" x="0px" y="0px"
	 width="100%" viewBox="0 0 472 458" enable-background="new 0 0 472 458" xml:space="preserve">
<path fill="#000000" opacity="1.000000" stroke="none" 
	d="
M473.000000,157.000000 
	C473.000000,257.972992 473.000000,358.445984 473.000000,458.959473 
	C315.735962,458.959473 158.471924,458.959473 1.103942,458.959473 
	C1.103942,306.443726 1.103942,153.887344 1.103942,1.165487 
	C158.333191,1.165487 315.666595,1.165487 473.000000,1.165487 
	C473.000000,52.861359 473.000000,104.680679 473.000000,157.000000 
M211.169601,8.966793 
	C199.203903,11.287623 187.108322,13.087046 175.297501,16.029547 
	C143.151321,24.038321 115.175529,40.173374 90.638802,62.082783 
	C75.357735,75.727592 62.369900,91.428932 51.363815,108.921623 
	C29.531528,143.621109 19.064682,181.519363 18.201561,222.146744 
	C17.958263,233.598785 19.786238,245.122726 21.042166,256.572205 
	C22.916889,273.662903 27.797747,290.024445 34.436737,305.809265 
	C47.824764,337.640472 67.408463,364.988159 93.845406,387.413330 
	C114.388084,404.838684 137.309265,418.003845 162.641144,426.973419 
	C189.749451,436.572052 217.813797,439.889801 246.437332,438.930054 
	C251.278824,438.767731 256.093933,437.818085 261.827850,437.003815 
	C270.064911,436.005310 278.319336,435.131287 286.535522,433.983398 
	C305.829163,431.287720 323.883728,424.472656 341.087494,415.787598 
	C352.243134,410.155823 362.702148,403.014374 373.032288,395.908234 
	C388.022675,385.596283 401.035736,372.902740 412.449249,358.841980 
	C425.371765,342.922150 435.894409,325.384583 443.989197,306.436829 
	C454.738800,281.274841 459.918732,254.905746 460.906281,227.721573 
	C461.550018,210.001373 459.514435,192.374390 455.872559,175.050690 
	C452.297729,158.046036 446.379364,141.662399 438.477631,126.236137 
	C431.506165,112.626030 423.287079,99.708832 413.491241,87.747559 
	C400.089417,71.383118 385.075317,56.992435 367.702271,44.920250 
	C348.800690,31.785908 328.490906,21.608839 306.418793,15.192817 
	C289.702820,10.333755 272.626709,7.153622 255.119766,7.009946 
	C247.123901,6.944326 239.114517,6.723118 231.134628,7.086029 
	C224.752686,7.376269 218.406067,8.443140 211.169601,8.966793 
z"/>
<path fill="#FFFEFE" opacity="1.000000" stroke="none" 
	d="
M212.043762,9.165316 
	C218.406067,8.443140 224.752686,7.376269 231.134628,7.086029 
	C239.114517,6.723118 247.123901,6.944326 255.119766,7.009946 
	C272.626709,7.153622 289.702820,10.333755 306.418793,15.192817 
	C328.490906,21.608839 348.800690,31.785908 367.702271,44.920250 
	C385.075317,56.992435 400.089417,71.383118 413.491241,87.747559 
	C423.287079,99.708832 431.506165,112.626030 438.477631,126.236137 
	C446.379364,141.662399 452.297729,158.046036 455.872559,175.050690 
	C459.514435,192.374390 461.550018,210.001373 460.906281,227.721573 
	C459.918732,254.905746 454.738800,281.274841 443.989197,306.436829 
	C435.894409,325.384583 425.371765,342.922150 412.449249,358.841980 
	C401.035736,372.902740 388.022675,385.596283 373.032288,395.908234 
	C362.702148,403.014374 352.243134,410.155823 341.087494,415.787598 
	C323.883728,424.472656 305.829163,431.287720 286.535522,433.983398 
	C278.319336,435.131287 270.064911,436.005310 260.919128,437.083832 
	C235.956253,437.940002 212.104111,436.566589 188.784348,430.081604 
	C145.022568,417.911865 108.299408,394.631470 79.254364,359.667297 
	C49.407459,323.737885 32.994621,282.254852 30.175425,235.657196 
	C28.241695,203.695160 32.915363,172.565201 45.216549,142.874939 
	C68.724419,86.136078 108.516808,45.280483 165.691315,22.401159 
	C180.531281,16.462708 196.560684,13.496654 212.043762,9.165316 
M335.094574,43.557678 
	C334.835602,43.527157 334.576660,43.496632 334.317688,43.466110 
	C334.549225,43.640747 334.780792,43.815380 335.174744,44.536324 
	C335.625580,44.868950 336.076385,45.201580 336.850830,46.107323 
	C339.245117,48.637566 341.789032,51.043964 344.005371,53.721489 
	C350.410950,61.459972 356.684692,69.307610 363.003876,77.725815 
	C363.311340,78.172302 363.618805,78.618790 363.895203,78.982239 
	C363.895203,78.982239 363.827667,79.039673 363.992004,79.760773 
	C368.999817,90.115196 374.703766,100.198235 378.868805,110.881241 
	C387.224304,132.312683 392.384796,154.601242 394.015350,177.623657 
	C395.011230,191.684921 396.495056,205.736069 396.808868,219.812943 
	C397.030945,229.775864 396.040802,239.817490 394.911407,249.746582 
	C393.261139,264.254608 391.744507,278.844604 388.837280,293.128204 
	C383.630402,318.710388 375.631165,343.393372 361.002411,365.380981 
	C361.002411,365.380981 361.010529,365.456116 360.525574,365.988678 
	C360.394073,366.645233 360.262573,367.301819 359.837921,368.574432 
	C354.476135,374.273468 349.243622,380.101624 343.716125,385.635071 
	C338.211426,391.145752 332.410614,396.360596 326.581238,401.854431 
	C327.342010,401.854431 327.877991,401.984344 328.307892,401.826019 
	C329.079865,401.541809 329.822144,401.137665 330.518066,400.691895 
	C359.668335,382.018982 384.530243,359.010773 402.133789,328.879303 
	C428.322601,284.052612 433.871368,235.480499 426.277649,185.130264 
	C420.197449,144.815216 404.138275,108.619087 376.875702,77.840492 
	C365.339264,64.816231 352.603149,53.186375 336.800629,44.251617 
	C336.191071,44.176243 335.581482,44.100864 335.094574,43.557678 
M99.100281,364.622833 
	C99.692459,365.088989 100.284630,365.555176 101.143509,366.644226 
	C103.225761,368.779724 105.253754,370.971466 107.399353,373.041290 
	C118.887955,384.124268 131.365906,393.884521 145.756851,401.878540 
	C146.080246,402.056610 146.403625,402.234711 146.727020,402.412811 
	C146.536026,401.897736 146.345047,401.382629 145.837921,400.273193 
	C126.709938,384.210846 111.429840,365.113586 100.201614,342.763763 
	C83.509613,309.538300 77.120827,273.841583 75.288757,237.179901 
	C74.132294,214.038162 75.306633,190.950989 78.819946,167.960846 
	C85.909309,121.569931 105.103882,81.659729 140.482285,50.143528 
	C142.025711,48.768589 143.512009,47.329502 145.024902,45.920300 
	C144.745026,45.499733 144.465149,45.079170 144.185257,44.658604 
	C141.429474,46.288834 138.443268,47.628696 135.958588,49.600544 
	C126.207451,57.339066 116.614410,65.276802 106.306679,73.176033 
	C105.689499,73.787590 105.072311,74.399147 104.136589,75.012871 
	C103.916008,75.330307 103.695435,75.647743 102.953949,76.570969 
	C98.811386,81.041122 94.195396,85.164864 90.620590,90.050446 
	C82.051224,101.761917 73.133980,113.345520 65.870834,125.859291 
	C51.487976,150.639679 44.259666,177.928238 42.174370,206.346512 
	C40.703106,226.396790 41.722912,246.585693 46.205963,266.255829 
	C52.065598,291.965942 61.952068,316.163147 77.418060,337.695587 
	C84.041779,346.917450 91.742172,355.365936 99.011307,364.099335 
	C99.011307,364.099335 98.928795,364.068176 99.100281,364.622833 
M230.180862,19.918320 
	C226.368851,20.613070 222.540054,21.227224 218.747620,22.016058 
	C198.845352,26.155743 181.600891,35.584171 166.569901,49.020573 
	C144.349747,68.883453 129.942169,93.853996 121.141258,121.995605 
	C116.883934,135.608704 114.085175,149.700043 111.042587,163.665588 
	C106.867081,182.831345 106.158493,202.353683 106.057541,221.886108 
	C106.026955,227.802155 106.527817,233.733582 107.031616,239.636948 
	C107.921059,250.059067 108.333611,260.583466 110.158768,270.849396 
	C112.747543,285.410309 115.661690,300.003754 119.836243,314.170929 
	C125.955925,334.939331 135.285172,354.223846 148.716537,371.564026 
	C160.428375,386.684235 174.272598,399.080017 191.070236,407.892548 
	C209.817856,417.728119 230.121307,421.501801 252.097458,420.988159 
	C262.828400,418.954529 274.024597,418.238892 284.204803,414.645172 
	C317.458466,402.906311 341.300537,379.934387 357.502228,348.994019 
	C379.157928,307.638123 384.601196,262.726227 384.456085,216.975128 
	C384.398346,198.769211 382.336121,180.472473 379.884888,162.393570 
	C375.989044,133.659531 367.244568,106.340149 352.045013,81.419334 
	C334.498413,52.650452 310.626526,31.718285 277.466003,22.804153 
	C262.226868,18.707609 246.713638,17.687649 230.180862,19.918320 
z"/>
<path fill="#F47481" opacity="1.000000" stroke="none" 
	d="
M211.606689,9.066055 
	C196.560684,13.496654 180.531281,16.462708 165.691315,22.401159 
	C108.516808,45.280483 68.724419,86.136078 45.216549,142.874939 
	C32.915363,172.565201 28.241695,203.695160 30.175425,235.657196 
	C32.994621,282.254852 49.407459,323.737885 79.254364,359.667297 
	C108.299408,394.631470 145.022568,417.911865 188.784348,430.081604 
	C212.104111,436.566589 235.956253,437.940002 260.465820,437.197998 
	C256.093933,437.818085 251.278824,438.767731 246.437332,438.930054 
	C217.813797,439.889801 189.749451,436.572052 162.641144,426.973419 
	C137.309265,418.003845 114.388084,404.838684 93.845406,387.413330 
	C67.408463,364.988159 47.824764,337.640472 34.436737,305.809265 
	C27.797747,290.024445 22.916889,273.662903 21.042166,256.572205 
	C19.786238,245.122726 17.958263,233.598785 18.201561,222.146744 
	C19.064682,181.519363 29.531528,143.621109 51.363815,108.921623 
	C62.369900,91.428932 75.357735,75.727592 90.638802,62.082783 
	C115.175529,40.173374 143.151321,24.038321 175.297501,16.029547 
	C187.108322,13.087046 199.203903,11.287623 211.606689,9.066055 
z"/>
<path fill="#000000" opacity="1.000000" stroke="none" 
	d="
M251.250381,420.892090 
	C230.121307,421.501801 209.817856,417.728119 191.070236,407.892548 
	C174.272598,399.080017 160.428375,386.684235 148.716537,371.564026 
	C135.285172,354.223846 125.955925,334.939331 119.836243,314.170929 
	C115.661690,300.003754 112.747543,285.410309 110.158768,270.849396 
	C108.333611,260.583466 107.921059,250.059067 107.031616,239.636948 
	C106.527817,233.733582 106.026955,227.802155 106.057541,221.886108 
	C106.158493,202.353683 106.867081,182.831345 111.042587,163.665588 
	C114.085175,149.700043 116.883934,135.608704 121.141258,121.995605 
	C129.942169,93.853996 144.349747,68.883453 166.569901,49.020573 
	C181.600891,35.584171 198.845352,26.155743 218.747620,22.016058 
	C222.540054,21.227224 226.368851,20.613070 231.054916,19.984821 
	C236.686127,20.366173 241.441788,20.705719 246.200714,20.991127 
	C259.186829,21.769951 271.638031,24.880026 283.454468,30.199814 
	C302.786987,38.903378 318.729675,52.225742 331.204620,69.083916 
	C339.190918,79.876274 346.276550,91.686157 351.676239,103.959259 
	C359.782593,122.384369 365.706970,141.708481 368.106323,161.897247 
	C369.688782,175.212341 372.458252,188.493286 372.737091,201.830490 
	C373.123932,220.333298 372.361877,238.933273 370.789795,257.380707 
	C369.532166,272.138184 367.269257,286.955322 363.809296,301.351013 
	C355.365143,336.484100 340.755219,368.373322 312.245941,392.328094 
	C297.941162,404.347595 282.245209,413.543823 263.977600,417.996246 
	C259.751038,419.026398 255.493622,419.930145 251.250381,420.892090 
z"/>
<path fill="#F47380" opacity="1.000000" stroke="none" 
	d="
M251.673920,420.940125 
	C255.493622,419.930145 259.751038,419.026398 263.977600,417.996246 
	C282.245209,413.543823 297.941162,404.347595 312.245941,392.328094 
	C340.755219,368.373322 355.365143,336.484100 363.809296,301.351013 
	C367.269257,286.955322 369.532166,272.138184 370.789795,257.380707 
	C372.361877,238.933273 373.123932,220.333298 372.737091,201.830490 
	C372.458252,188.493286 369.688782,175.212341 368.106323,161.897247 
	C365.706970,141.708481 359.782593,122.384369 351.676239,103.959259 
	C346.276550,91.686157 339.190918,79.876274 331.204620,69.083916 
	C318.729675,52.225742 302.786987,38.903378 283.454468,30.199814 
	C271.638031,24.880026 259.186829,21.769951 246.200714,20.991127 
	C241.441788,20.705719 236.686127,20.366173 231.483002,19.949511 
	C246.713638,17.687649 262.226868,18.707609 277.466003,22.804153 
	C310.626526,31.718285 334.498413,52.650452 352.045013,81.419334 
	C367.244568,106.340149 375.989044,133.659531 379.884888,162.393570 
	C382.336121,180.472473 384.398346,198.769211 384.456085,216.975128 
	C384.601196,262.726227 379.157928,307.638123 357.502228,348.994019 
	C341.300537,379.934387 317.458466,402.906311 284.204803,414.645172 
	C274.024597,418.238892 262.828400,418.954529 251.673920,420.940125 
z"/>
<path fill="#000000" opacity="1.000000" stroke="none" 
	d="
M360.997009,365.428955 
	C375.631165,343.393372 383.630402,318.710388 388.837280,293.128204 
	C391.744507,278.844604 393.261139,264.254608 394.911407,249.746582 
	C396.040802,239.817490 397.030945,229.775864 396.808868,219.812943 
	C396.495056,205.736069 395.011230,191.684921 394.015350,177.623657 
	C392.384796,154.601242 387.224304,132.312683 378.868805,110.881241 
	C374.703766,100.198235 368.999817,90.115196 364.184631,79.080666 
	C364.922699,78.772072 365.589996,79.042183 365.995911,79.529861 
	C377.867493,93.791367 388.040527,109.085503 396.124634,125.886566 
	C410.327911,155.404984 417.006317,186.650497 417.784607,219.110992 
	C418.102539,232.370804 416.327057,245.721771 414.937622,258.971893 
	C412.864441,278.743164 406.642609,297.380676 398.259430,315.328186 
	C390.725555,331.457458 380.686279,345.954987 369.028595,359.325684 
	C366.864685,361.807587 363.699860,363.416901 360.997009,365.428955 
z"/>
<path fill="#000000" opacity="1.000000" stroke="none" 
	d="
M98.953369,364.165802 
	C91.742172,355.365936 84.041779,346.917450 77.418060,337.695587 
	C61.952068,316.163147 52.065598,291.965942 46.205963,266.255829 
	C41.722912,246.585693 40.703106,226.396790 42.174370,206.346512 
	C44.259666,177.928238 51.487976,150.639679 65.870834,125.859291 
	C73.133980,113.345520 82.051224,101.761917 90.620590,90.050446 
	C94.195396,85.164864 98.811386,81.041122 103.528107,76.658051 
	C103.596199,77.778168 103.238998,78.922577 102.561890,79.827675 
	C90.995705,95.288391 82.313034,112.277672 76.396843,130.596802 
	C71.186867,146.729218 67.340179,163.220352 66.010689,180.190811 
	C64.943077,193.818451 63.492672,207.445312 63.192081,221.094116 
	C62.971558,231.107407 63.874958,241.212784 65.103706,251.175201 
	C67.038979,266.865967 68.874153,282.642792 72.207924,298.068481 
	C76.272255,316.874573 82.972740,334.899963 92.844307,351.610413 
	C95.203850,355.604614 96.933838,359.970734 98.953369,364.165802 
z"/>
<path fill="#F57480" opacity="1.000000" stroke="none" 
	d="
M360.999695,365.404968 
	C363.699860,363.416901 366.864685,361.807587 369.028595,359.325684 
	C380.686279,345.954987 390.725555,331.457458 398.259430,315.328186 
	C406.642609,297.380676 412.864441,278.743164 414.937622,258.971893 
	C416.327057,245.721771 418.102539,232.370804 417.784607,219.110992 
	C417.006317,186.650497 410.327911,155.404984 396.124634,125.886566 
	C388.040527,109.085503 377.867493,93.791367 365.995911,79.529861 
	C365.589996,79.042183 364.922699,78.772072 364.102448,78.720116 
	C363.827667,79.039673 363.895203,78.982239 364.221100,78.787537 
	C364.034729,78.099358 363.522461,77.605881 363.010193,77.112404 
	C356.684692,69.307610 350.410950,61.459972 344.005371,53.721489 
	C341.789032,51.043964 339.245117,48.637566 336.865265,45.626312 
	C336.993896,45.012753 337.108093,44.880207 337.222321,44.747658 
	C352.603149,53.186375 365.339264,64.816231 376.875702,77.840492 
	C404.138275,108.619087 420.197449,144.815216 426.277649,185.130264 
	C433.871368,235.480499 428.322601,284.052612 402.133789,328.879303 
	C384.530243,359.010773 359.668335,382.018982 330.518066,400.691895 
	C329.822144,401.137665 329.079865,401.541809 328.307892,401.826019 
	C327.877991,401.984344 327.342010,401.854431 326.581238,401.854431 
	C332.410614,396.360596 338.211426,391.145752 343.716125,385.635071 
	C349.243622,380.101624 354.476135,374.273468 360.382507,368.064941 
	C360.954895,366.855652 360.982697,366.155884 361.010529,365.456116 
	C361.010529,365.456116 361.002411,365.380981 360.999695,365.404968 
z"/>
<path fill="#F57380" opacity="1.000000" stroke="none" 
	d="
M98.982346,364.132568 
	C96.933838,359.970734 95.203850,355.604614 92.844307,351.610413 
	C82.972740,334.899963 76.272255,316.874573 72.207924,298.068481 
	C68.874153,282.642792 67.038979,266.865967 65.103706,251.175201 
	C63.874958,241.212784 62.971558,231.107407 63.192081,221.094116 
	C63.492672,207.445312 64.943077,193.818451 66.010689,180.190811 
	C67.340179,163.220352 71.186867,146.729218 76.396843,130.596802 
	C82.313034,112.277672 90.995705,95.288391 102.561890,79.827675 
	C103.238998,78.922577 103.596199,77.778168 103.788559,76.355148 
	C103.695435,75.647743 103.916008,75.330307 104.586220,75.376038 
	C105.678123,74.872986 106.320389,74.006775 106.962662,73.140556 
	C116.614410,65.276802 126.207451,57.339066 135.958588,49.600544 
	C138.443268,47.628696 141.429474,46.288834 144.185257,44.658604 
	C144.465149,45.079170 144.745026,45.499733 145.024902,45.920300 
	C143.512009,47.329502 142.025711,48.768589 140.482285,50.143528 
	C105.103882,81.659729 85.909309,121.569931 78.819946,167.960846 
	C75.306633,190.950989 74.132294,214.038162 75.288757,237.179901 
	C77.120827,273.841583 83.509613,309.538300 100.201614,342.763763 
	C111.429840,365.113586 126.709938,384.210846 145.839478,400.699524 
	C145.841019,401.125885 145.524231,401.379669 145.524231,401.379669 
	C131.365906,393.884521 118.887955,384.124268 107.399353,373.041290 
	C105.253754,370.971466 103.225761,368.779724 101.064301,365.926300 
	C100.299660,364.828308 99.614227,364.448242 98.928795,364.068176 
	C98.928795,364.068176 99.011307,364.099335 98.982346,364.132568 
z"/>
<path fill="#000000" opacity="1.000000" stroke="none" 
	d="
M106.634674,73.158295 
	C106.320389,74.006775 105.678123,74.872986 104.745483,75.374954 
	C105.072311,74.399147 105.689499,73.787590 106.634674,73.158295 
z"/>
<path fill="#000000" opacity="1.000000" stroke="none" 
	d="
M99.014542,364.345520 
	C99.614227,364.448242 100.299660,364.828308 100.930946,365.614868 
	C100.284630,365.555176 99.692459,365.088989 99.014542,364.345520 
z"/>
<path fill="#F57480" opacity="1.000000" stroke="none" 
	d="
M336.703430,45.339752 
	C336.076385,45.201580 335.625580,44.868950 335.083862,44.271431 
	C334.993011,44.006538 334.971924,44.025486 334.971924,44.025486 
	C335.581482,44.100864 336.191071,44.176243 337.011475,44.499638 
	C337.108093,44.880207 336.993896,45.012753 336.703430,45.339752 
z"/>
<path fill="#000000" opacity="1.000000" stroke="none" 
	d="
M363.007019,77.419113 
	C363.522461,77.605881 364.034729,78.099358 364.236633,78.829056 
	C363.618805,78.618790 363.311340,78.172302 363.007019,77.419113 
z"/>
<path fill="#000000" opacity="1.000000" stroke="none" 
	d="
M360.768066,365.722412 
	C360.982697,366.155884 360.954895,366.855652 360.529053,367.756897 
	C360.262573,367.301819 360.394073,366.645233 360.768066,365.722412 
z"/>
<path fill="#F57380" opacity="1.000000" stroke="none" 
	d="
M145.997543,400.996704 
	C146.345047,401.382629 146.536026,401.897736 146.727020,402.412811 
	C146.403625,402.234711 146.080246,402.056610 145.640533,401.629089 
	C145.524231,401.379669 145.841019,401.125885 145.997543,400.996704 
z"/>
<path fill="#F57480" opacity="1.000000" stroke="none" 
	d="
M335.002686,43.998276 
	C334.780792,43.815380 334.549225,43.640747 334.317688,43.466110 
	C334.576660,43.496632 334.835602,43.527157 335.033264,43.791580 
	C334.971924,44.025486 334.993011,44.006538 335.002686,43.998276 
z"/>
</svg>